<mxfile host="www.draw.io" modified="2020-03-06T12:51:52.698Z" agent="Mozilla/5.0 (Macintosh; Intel Mac OS X 10_14_6) AppleWebKit/537.36 (KHTML, like Gecko) Chrome/80.0.3987.122 Safari/537.36" etag="DEPXV0eYWysN03KssZkI" version="12.8.1" type="github">
  <diagram id="w6hdogesCgSzW8KNwTcu" name="Page-1">
    <mxGraphModel dx="1281" dy="821" grid="1" gridSize="10" guides="1" tooltips="1" connect="1" arrows="1" fold="1" page="1" pageScale="1" pageWidth="827" pageHeight="1169" math="0" shadow="0">
      <root>
        <mxCell id="0" />
        <mxCell id="1" parent="0" />
        <mxCell id="aAWVtXx4EYfe7-cEjIgJ-13" value="&amp;nbsp; &amp;nbsp; 影响面模块&lt;br&gt;&lt;br&gt;&lt;br&gt;&lt;br&gt;&lt;br&gt;&lt;br&gt;&lt;br&gt;&lt;br&gt;&lt;br&gt;&lt;br&gt;&lt;br&gt;&lt;br&gt;&lt;br&gt;&lt;br&gt;" style="rounded=1;whiteSpace=wrap;html=1;align=left;" vertex="1" parent="1">
          <mxGeometry x="140" y="340" width="600" height="220" as="geometry" />
        </mxCell>
        <mxCell id="z2zC10R0ZJiUsRDq-FJP-4" value="自动发现&lt;br&gt;&lt;br&gt;&lt;br&gt;&lt;br&gt;&lt;br&gt;&lt;br&gt;" style="rounded=1;whiteSpace=wrap;html=1;" parent="1" vertex="1">
          <mxGeometry x="170" y="440" width="270" height="100" as="geometry" />
        </mxCell>
        <mxCell id="z2zC10R0ZJiUsRDq-FJP-2" value="ASSP" style="rounded=1;whiteSpace=wrap;html=1;fillColor=#9999FF;" parent="1" vertex="1">
          <mxGeometry x="180" y="470" width="120" height="60" as="geometry" />
        </mxCell>
        <mxCell id="z2zC10R0ZJiUsRDq-FJP-3" value="默认配置" style="rounded=1;whiteSpace=wrap;html=1;fillColor=#9999FF;" parent="1" vertex="1">
          <mxGeometry x="310" y="470" width="120" height="60" as="geometry" />
        </mxCell>
        <mxCell id="z2zC10R0ZJiUsRDq-FJP-5" value="人工配置&lt;br&gt;&lt;br&gt;&lt;br&gt;&lt;br&gt;&lt;br&gt;&lt;br&gt;" style="rounded=1;whiteSpace=wrap;html=1;" parent="1" vertex="1">
          <mxGeometry x="445" y="440" width="270" height="100" as="geometry" />
        </mxCell>
        <mxCell id="z2zC10R0ZJiUsRDq-FJP-6" value="" style="rounded=1;whiteSpace=wrap;html=1;" parent="1" vertex="1">
          <mxGeometry x="140" y="600" width="600" height="220" as="geometry" />
        </mxCell>
        <mxCell id="z2zC10R0ZJiUsRDq-FJP-7" value="traversalMapping" style="rounded=1;whiteSpace=wrap;html=1;fillColor=#FFFFCC;" parent="1" vertex="1">
          <mxGeometry x="310" y="612" width="120" height="60" as="geometry" />
        </mxCell>
        <mxCell id="6JGDxQjxpqLckkwGgAIi-4" value="traversal" style="rounded=1;whiteSpace=wrap;html=1;fillColor=#FFFFCC;" parent="1" vertex="1">
          <mxGeometry x="180" y="612" width="120" height="60" as="geometry" />
        </mxCell>
        <mxCell id="aAWVtXx4EYfe7-cEjIgJ-1" value="page" style="rounded=1;whiteSpace=wrap;html=1;fillColor=#FFFFCC;" vertex="1" parent="1">
          <mxGeometry x="450" y="612" width="120" height="60" as="geometry" />
        </mxCell>
        <mxCell id="aAWVtXx4EYfe7-cEjIgJ-2" value="cursor" style="rounded=1;whiteSpace=wrap;html=1;fillColor=#FFFFCC;" vertex="1" parent="1">
          <mxGeometry x="580" y="612" width="120" height="60" as="geometry" />
        </mxCell>
        <mxCell id="aAWVtXx4EYfe7-cEjIgJ-3" value="lindorm" style="shape=datastore;whiteSpace=wrap;html=1;fillColor=#E6E6E6;" vertex="1" parent="1">
          <mxGeometry x="372.5" y="757" width="135" height="60" as="geometry" />
        </mxCell>
        <mxCell id="aAWVtXx4EYfe7-cEjIgJ-5" value="路径" style="rounded=1;whiteSpace=wrap;html=1;fillColor=#9999FF;" vertex="1" parent="1">
          <mxGeometry x="585" y="470" width="60" height="60" as="geometry" />
        </mxCell>
        <mxCell id="aAWVtXx4EYfe7-cEjIgJ-6" value="影响面" style="rounded=1;whiteSpace=wrap;html=1;fillColor=#9999FF;" vertex="1" parent="1">
          <mxGeometry x="450" y="470" width="60" height="60" as="geometry" />
        </mxCell>
        <mxCell id="aAWVtXx4EYfe7-cEjIgJ-7" value="属性" style="rounded=1;whiteSpace=wrap;html=1;fillColor=#9999FF;" vertex="1" parent="1">
          <mxGeometry x="650" y="470" width="60" height="60" as="geometry" />
        </mxCell>
        <mxCell id="aAWVtXx4EYfe7-cEjIgJ-8" value="Json解析" style="rounded=1;whiteSpace=wrap;html=1;fillColor=#9999FF;" vertex="1" parent="1">
          <mxGeometry x="518" y="470" width="60" height="60" as="geometry" />
        </mxCell>
        <mxCell id="aAWVtXx4EYfe7-cEjIgJ-9" value="通用影响面模型" style="shape=process;whiteSpace=wrap;html=1;backgroundOutline=1;" vertex="1" parent="1">
          <mxGeometry x="170" y="370" width="270" height="60" as="geometry" />
        </mxCell>
        <mxCell id="aAWVtXx4EYfe7-cEjIgJ-10" value="变更场景影响面模型" style="shape=process;whiteSpace=wrap;html=1;backgroundOutline=1;" vertex="1" parent="1">
          <mxGeometry x="450" y="370" width="260" height="60" as="geometry" />
        </mxCell>
        <mxCell id="aAWVtXx4EYfe7-cEjIgJ-12" value="通用数据模块" style="shape=process;whiteSpace=wrap;html=1;backgroundOutline=1;fillColor=#E5CCFF;" vertex="1" parent="1">
          <mxGeometry x="380" y="682" width="120" height="60" as="geometry" />
        </mxCell>
        <mxCell id="aAWVtXx4EYfe7-cEjIgJ-14" value="" style="shape=flexArrow;endArrow=classic;html=1;exitX=0.5;exitY=1;exitDx=0;exitDy=0;entryX=0.5;entryY=0;entryDx=0;entryDy=0;" edge="1" parent="1" source="aAWVtXx4EYfe7-cEjIgJ-13" target="z2zC10R0ZJiUsRDq-FJP-6">
          <mxGeometry width="50" height="50" relative="1" as="geometry">
            <mxPoint x="440" y="560" as="sourcePoint" />
            <mxPoint x="470" y="530" as="targetPoint" />
          </mxGeometry>
        </mxCell>
      </root>
    </mxGraphModel>
  </diagram>
</mxfile>
